<?xml version="1.0" standalone="no"?><svg xmlns="http://www.w3.org/2000/svg" viewBox="0 0 1440 320"><path fill="#0099ff" fill-opacity="1" d="M0,32L17.1,32C34.3,32,69,32,103,53.3C137.1,75,171,117,206,128C240,139,274,117,309,128C342.9,139,377,181,411,202.7C445.7,224,480,224,514,197.3C548.6,171,583,117,617,133.3C651.4,149,686,235,720,229.3C754.3,224,789,128,823,112C857.1,96,891,160,926,181.3C960,203,994,181,1029,160C1062.9,139,1097,117,1131,128C1165.7,139,1200,181,1234,197.3C1268.6,213,1303,203,1337,186.7C1371.4,171,1406,149,1423,138.7L1440,128L1440,0L1422.9,0C1405.7,0,1371,0,1337,0C1302.9,0,1269,0,1234,0C1200,0,1166,0,1131,0C1097.1,0,1063,0,1029,0C994.3,0,960,0,926,0C891.4,0,857,0,823,0C788.6,0,754,0,720,0C685.7,0,651,0,617,0C582.9,0,549,0,514,0C480,0,446,0,411,0C377.1,0,343,0,309,0C274.3,0,240,0,206,0C171.4,0,137,0,103,0C68.6,0,34,0,17,0L0,0Z"></path></svg>